<svg width="1027" height="315" viewBox="0 0 1027 315" fill="none" xmlns="http://www.w3.org/2000/svg">
<path d="M1016.07 278.219C1015.94 277.279 1015.81 273.939 1015.67 268.199C1015.54 262.449 1015.41 255.439 1015.27 247.179C1015.15 238.769 1015.02 229.569 1014.88 219.569C1014.75 209.569 1014.62 199.829 1014.48 190.379C1014.34 180.779 1014.21 171.919 1014.07 163.799C1014.07 155.669 1014.07 149.279 1014.07 144.629C1014.07 141.959 1014.27 140.299 1014.67 139.649C1015.21 138.849 1016.27 138.479 1017.87 138.499C1019.07 138.529 1020.07 138.799 1020.87 139.359C1021.67 139.899 1022.07 141.699 1022.07 144.769C1022.07 165.516 1022.07 186.266 1022.07 207.019C1022.07 227.779 1022.07 248.546 1022.07 269.319C1022.07 273.979 1021.87 277.519 1021.47 279.919C1021.21 282.319 1020.34 283.499 1018.87 283.479C1018.21 283.469 1017.61 283.189 1017.07 282.649C1016.67 281.969 1016.34 280.489 1016.07 278.219ZM1026.46 299.829C1026.46 302.089 1025.66 303.759 1024.06 304.809C1022.47 305.859 1020.87 306.379 1019.27 306.369C1017.54 306.349 1015.94 305.799 1014.47 304.719C1013.01 303.629 1012.27 301.879 1012.27 299.459C1012.27 296.899 1013.07 295.099 1014.67 294.039C1016.27 292.999 1018.01 292.489 1019.87 292.509C1021.74 292.539 1023.27 293.299 1024.47 294.789C1025.8 296.139 1026.46 297.829 1026.46 299.829Z" fill="black"/>
<path d="M876.5 220.799C876.49 232.759 877.68 243.619 880.06 253.359C882.45 263.109 885.84 271.449 890.23 278.369C894.75 285.139 900.14 290.399 906.4 294.159C912.8 297.759 919.85 299.579 927.59 299.609C934.92 299.639 941.72 298.039 947.99 294.799C954.39 291.429 959.85 286.439 964.4 279.849C969.06 273.139 972.66 264.899 975.2 255.129C977.86 245.379 979.2 233.959 979.21 220.869C979.21 209.789 978.01 199.439 975.61 189.789C973.21 180.019 969.87 171.559 965.62 164.429C961.48 157.169 956.48 151.419 950.63 147.179C944.89 142.939 938.57 140.749 931.64 140.589C922.19 140.349 914 142.569 907.08 147.279C900.29 151.859 894.55 157.989 889.9 165.699C885.37 173.289 881.97 181.949 879.71 191.699C877.57 201.339 876.5 211.039 876.5 220.799ZM867.51 219.759C867.51 212.829 868.12 205.859 869.32 198.869C870.52 191.879 872.32 185.209 874.72 178.839C877.12 172.489 880.05 166.569 883.51 161.089C887.1 155.479 891.23 150.709 895.89 146.749C900.54 142.779 905.74 139.699 911.47 137.479C917.32 135.259 923.65 134.239 930.44 134.409C939.49 134.619 947.63 137.109 954.82 141.899C962.02 146.559 968.07 152.859 973.01 160.799C977.94 168.739 981.66 177.929 984.2 188.369C986.86 198.809 988.2 209.839 988.2 221.439C988.2 237.729 986.13 251.339 982 262.269C978 273.099 972.92 281.809 966.79 288.389C960.79 294.999 954.19 299.729 946.98 302.579C939.91 305.279 933.31 306.639 927.18 306.619C919.71 306.599 912.39 304.919 905.19 301.569C898.13 298.099 891.81 292.829 886.22 285.759C880.63 278.669 876.11 269.689 872.66 258.799C869.21 247.769 867.49 234.739 867.51 219.759Z" fill="black"/>
<path d="M837.7 181.309C837.7 175.479 836.65 170.439 834.52 166.159C832.52 161.879 829.87 158.179 826.54 155.049C823.22 151.769 819.43 149.059 815.17 146.929C811.05 144.779 806.86 143.089 802.61 141.859C798.36 140.479 794.23 139.429 790.25 138.709C786.4 138.009 783.07 137.539 780.28 137.309C778.43 137.149 776.64 137.059 774.9 137.059C773.18 137.039 771.66 137.109 770.32 137.279C768.73 137.399 767.27 137.479 765.94 137.499C765.887 164.666 765.83 191.992 765.77 219.479C765.91 219.479 766.36 219.559 767.16 219.739C767.96 219.769 768.83 219.799 769.76 219.839C770.83 219.869 771.76 219.969 772.55 220.149C773.49 220.179 774.02 220.199 774.15 220.209C780.81 220.439 787.87 220.119 795.32 219.259C802.78 218.399 809.64 216.549 815.9 213.719C822.16 210.899 827.36 206.889 831.49 201.699C835.63 196.519 837.69 189.719 837.7 181.309ZM767.14 227.589C766.61 227.579 766.15 227.489 765.75 227.329C765.69 250.182 765.627 273.066 765.56 295.979C770.56 295.999 775.557 296.022 780.55 296.049C783.09 296.069 785.22 296.359 786.95 296.939C788.69 297.369 789.55 298.439 789.54 300.139C789.54 300.839 789.41 301.339 789.14 301.619C788.88 301.899 788.28 302.179 787.34 302.459C786.41 302.599 785.01 302.669 783.14 302.659C781.41 302.649 779.08 302.639 776.14 302.629C764.673 302.602 753.21 302.589 741.75 302.589C737.89 302.589 735.49 302.299 734.55 301.719C733.62 300.999 733.16 300.269 733.16 299.559C733.16 298.679 733.76 297.969 734.97 297.399C736.31 296.819 739.17 296.529 743.57 296.539C745.3 296.549 746.96 296.489 748.56 296.349C750.16 296.059 751.57 295.559 752.77 294.859C754.11 294.009 755.11 292.939 755.78 291.649C756.58 290.219 756.98 288.369 756.99 286.089C757.03 274.079 757.13 262.169 757.29 250.339C757.47 238.519 757.56 226.559 757.59 214.479C757.62 202.419 757.45 190.579 757.08 178.979C756.71 167.249 756.54 155.429 756.56 143.529C756.57 141.299 756.24 139.589 755.58 138.419C754.92 137.099 753.93 136.099 752.59 135.399C751.27 134.719 749.61 134.279 747.62 134.079C745.63 133.719 743.31 133.409 740.65 133.129C739.59 133.019 738.26 132.739 736.67 132.299C735.08 131.839 734.28 130.759 734.29 129.059C734.29 128.339 734.49 127.869 734.89 127.629C735.43 127.259 736.02 127.049 736.68 126.989C737.35 126.779 738.02 126.709 738.67 126.789C739.34 126.859 739.81 126.919 740.07 126.939C745.38 127.529 749.69 127.989 753 128.339C756.33 128.539 759.52 128.799 762.56 129.099C765.75 129.279 769.2 129.549 772.92 129.899C776.64 130.089 781.49 130.459 787.46 130.969C793.58 131.469 800.09 132.779 807 134.889C813.92 136.969 820.3 139.989 826.14 143.949C832 147.749 836.86 152.689 840.71 158.779C844.7 164.729 846.69 171.949 846.68 180.449C846.68 189.519 844.82 197.189 841.08 203.459C837.47 209.619 832.68 214.609 826.68 218.409C820.82 222.089 814.09 224.719 806.49 226.309C798.9 227.749 791.11 228.349 783.12 228.099C789.09 238.099 795.13 247.929 801.24 257.589C803.77 261.689 806.48 265.939 809.4 270.329C812.33 274.709 815.25 279.009 818.17 283.239C821.23 287.479 824.22 291.569 827.14 295.519C830.07 299.319 832.92 302.759 835.72 305.859C842.12 305.886 848.517 305.912 854.91 305.939C857.98 305.959 860.25 306.099 861.71 306.389C863.31 306.669 864.11 307.509 864.11 308.909C864.1 309.729 863.7 310.369 862.9 310.769C862.24 311.339 860.7 311.679 858.3 311.809C856.04 312.079 852.77 312.219 848.5 312.209C844.24 312.199 838.64 312.179 831.7 312.159C830.5 312.159 828.65 310.739 826.11 307.929C823.72 305.109 820.87 301.369 817.54 296.719C814.22 292.059 810.64 286.759 806.78 280.819C802.94 274.869 798.95 268.769 794.83 262.529C790.85 256.269 786.87 250.139 782.88 244.129C778.9 237.959 775.19 232.509 771.74 227.739C770.207 227.692 768.673 227.642 767.14 227.589Z" fill="black"/>
<path d="M626.16 120.699C622.7 120.329 620.58 120.909 619.77 122.459C619.09 124.009 618.74 127.149 618.7 131.849C618.633 141.196 618.567 150.502 618.5 159.769C618.47 164.849 618.24 168.329 617.83 170.209C617.42 171.919 616.35 172.729 614.62 172.639C613.56 172.579 612.69 171.969 612.04 170.819C611.38 169.669 611.07 166.709 611.1 161.929C611.12 159.359 611.14 156.079 611.17 152.069C611.33 147.889 611.43 144.419 611.45 141.679C611.47 139.079 611.43 135.659 611.33 131.429C611.36 127.179 611.39 123.659 611.41 120.879C611.45 116.099 611.93 113.179 612.88 112.119C613.81 111.069 615.88 110.739 619.06 111.099C623.57 111.629 627.81 112.209 631.79 112.859C635.9 113.369 639.95 113.879 643.93 114.379C647.9 114.879 651.88 115.459 655.86 116.129C659.96 116.659 664.27 117.219 668.78 117.809C673.29 118.399 677.53 118.959 681.51 119.479C685.62 119.869 689.67 120.329 693.64 120.849C697.62 121.359 701.6 121.869 705.58 122.379C709.69 122.739 713.99 123.209 718.51 123.769C721.69 124.159 723.74 124.899 724.67 126.009C725.59 127.129 726.05 129.769 726.04 133.929C726.03 136.359 725.95 139.439 725.81 143.169C725.8 146.899 725.79 149.929 725.78 152.239C725.78 154.679 725.77 157.779 725.76 161.539C725.87 165.149 725.93 168.109 725.93 170.429C725.91 174.759 725.56 177.399 724.9 178.379C724.23 179.339 723.36 179.789 722.31 179.719C720.57 179.609 719.52 178.729 719.12 177.109C718.73 175.339 718.54 172.119 718.56 167.479C718.587 159.059 718.617 150.642 718.65 142.229C718.66 138.029 718.27 135.159 717.48 133.629C716.82 132.099 714.76 131.149 711.32 130.749C698.387 129.222 685.453 127.679 672.52 126.119C672.367 154.806 672.223 183.349 672.09 211.749C671.963 239.876 671.84 267.882 671.72 295.769C678.12 295.782 684.52 295.792 690.92 295.799C692.38 295.799 693.71 296.169 694.91 296.899C696.24 297.629 696.9 298.579 696.9 299.749C696.89 301.649 695.55 302.609 692.89 302.609C678.763 302.622 664.633 302.636 650.5 302.649C648.63 302.649 646.76 302.499 644.9 302.209C643.17 301.769 642.31 300.949 642.32 299.749C642.32 298.429 642.98 297.519 644.33 297.089C645.66 296.639 646.93 296.409 648.13 296.409C649.46 296.409 650.93 296.409 652.53 296.409C654.26 296.269 655.86 295.899 657.33 295.299C658.93 294.569 660.2 293.539 661.14 292.209C662.21 290.729 662.76 288.729 662.77 286.219C662.82 274.049 663 262.159 663.32 250.539C663.63 238.729 663.83 226.219 663.89 212.989C663.93 206.499 663.89 199.549 663.8 192.129C663.84 184.539 663.81 176.929 663.72 169.309C663.62 161.659 663.53 154.069 663.44 146.539C663.49 138.999 663.53 131.829 663.57 125.039C651.097 123.559 638.627 122.112 626.16 120.699Z" fill="black"/>
<path d="M505.66 282.169C505.65 285.689 505.69 288.839 505.82 291.599C505.81 292.809 505.8 293.959 505.8 295.039C505.92 296.099 505.99 297.099 505.98 298.009C505.98 299.079 506.03 300.059 506.17 300.989C506.15 304.789 504.87 306.699 502.34 306.689C501 306.679 500 306.059 499.35 304.849C498.69 303.629 498.36 302.489 498.37 301.429C498.37 300.509 498.38 299.139 498.39 297.309C498.53 295.469 498.67 293.419 498.82 291.129C498.96 288.829 499.04 286.539 499.05 284.239C499.2 281.939 499.28 279.929 499.29 278.239C499.3 275.779 499.24 273.699 499.12 272.019C499.13 270.319 499.14 268.689 499.15 267.149C499.16 265.449 499.09 263.749 498.97 262.039C498.98 260.339 499 258.249 499.01 255.769C499.02 253.589 499.23 251.719 499.64 250.169C500.05 248.599 501.12 247.829 502.86 247.819C504.72 247.819 505.91 249.289 506.43 252.259C506.94 255.049 507.2 258.159 507.18 261.579C507.15 266.369 508.05 271.089 509.9 275.709C511.87 280.329 514.65 284.389 518.23 287.919C521.95 291.439 526.46 294.329 531.79 296.609C537.24 298.729 543.5 299.779 550.57 299.749C555.37 299.729 560.04 299.029 564.58 297.639C569.12 296.279 573.13 294.369 576.61 291.929C580.22 289.359 583.09 286.239 585.25 282.609C587.53 278.809 588.69 274.559 588.72 269.839C588.74 265.099 587.02 260.879 583.59 257.179C580.14 253.459 575.83 250.099 570.65 247.119C565.6 243.969 560.15 241.039 554.31 238.349C548.59 235.639 543.34 232.939 538.56 230.239C534.31 227.859 530 225.149 525.62 222.129C521.24 219.099 517.19 215.279 513.49 210.659C509.79 205.869 506.77 200.099 504.42 193.339C502.2 186.379 501.13 177.759 501.22 167.409C501.29 158.129 502.9 149.429 506.04 141.309C509.31 133.129 513.44 125.999 518.44 119.979C523.43 113.759 529.01 108.949 535.18 105.589C541.33 102.279 547.41 100.789 553.4 101.099C563.1 101.699 571.31 105.749 578.02 113.119C584.74 120.239 590.03 131.169 593.9 145.789C593.45 135.399 593.11 127.659 592.9 122.649C592.67 117.449 592.57 114.759 592.57 114.589C592.6 110.379 593.88 108.399 596.41 108.649C597.73 108.779 598.72 109.549 599.38 110.959C600.02 112.359 600.35 113.639 600.34 114.819C600.29 120.629 600.1 126.669 599.79 132.919C599.47 138.959 599.3 144.919 599.25 150.779C599.21 155.959 599.24 160.409 599.35 164.119C599.46 167.819 599.5 172.229 599.46 177.349C599.44 179.569 599.23 181.469 598.82 183.049C598.41 184.619 597.34 185.369 595.61 185.299C593.75 185.229 592.56 183.749 592.05 180.849C591.67 177.789 591.49 174.499 591.52 170.969C591.04 162.229 589.85 154.189 587.91 146.889C585.97 139.349 583.36 132.869 580.09 127.469C576.95 121.859 573.13 117.439 568.64 114.239C564.28 111.039 559.43 109.279 554.12 108.979C547.86 108.679 541.98 110.269 536.49 113.749C531.12 117.089 526.42 121.679 522.37 127.499C518.44 133.289 515.31 139.919 512.99 147.349C510.65 154.559 509.46 161.969 509.4 169.579C509.33 177.789 510.14 184.639 511.84 190.159C513.66 195.659 516.03 200.399 518.94 204.429C521.97 208.279 525.42 211.559 529.27 214.289C533.11 216.849 537.03 219.259 541.02 221.509C545 223.739 550.11 226.319 556.36 229.209C562.74 232.099 568.92 235.519 574.89 239.489C580.99 243.429 586.17 247.889 590.41 252.859C594.78 257.799 596.95 263.469 596.91 269.879C596.88 276.559 595.31 282.239 592.23 286.939C589.14 291.479 585.25 295.249 580.58 298.289C576.02 301.169 571.08 303.229 565.75 304.449C560.4 305.849 555.54 306.549 551.14 306.569C546.87 306.589 542.47 306.159 537.95 305.269C533.55 304.379 529.29 303.019 525.17 301.199C521.04 299.229 517.25 296.709 513.81 293.669C510.48 290.449 507.77 286.609 505.66 282.169Z" fill="black"/>
<path d="M477.83 231.269C479.7 231.249 480.77 232.109 481.02 233.829C481.41 235.389 481.6 237.119 481.59 238.999C481.58 240.399 481.43 243.289 481.13 247.659C480.98 251.859 480.68 256.739 480.25 262.309C479.96 267.859 479.59 273.629 479.16 279.619C478.86 285.589 478.5 290.839 478.07 295.409C477.8 299.219 476.98 301.409 475.64 302.019C474.31 302.619 472.31 302.919 469.64 302.909C461.51 302.869 453.58 302.759 445.83 302.589C438.23 302.409 430.37 302.309 422.23 302.289C414.1 302.269 405.97 302.319 397.83 302.459C389.82 302.449 381.76 302.499 373.62 302.649C371.62 302.639 369.56 302.559 367.42 302.419C365.42 302.119 364.42 301.369 364.43 300.199C364.43 298.569 365.04 297.529 366.24 297.089C367.58 296.649 369.58 296.409 372.25 296.409C378.52 296.409 382.79 295.899 385.06 294.859C387.33 293.659 388.47 291.499 388.49 288.369C388.51 283.139 388.53 278.569 388.55 274.679C388.57 270.629 388.58 266.879 388.6 263.429C388.76 259.819 388.83 256.269 388.85 252.809C388.87 249.339 388.89 245.479 388.91 241.249C389.07 236.849 389.16 231.919 389.18 226.449C389.21 220.799 389.25 214.159 389.29 206.509C389.34 197.909 389.32 190.129 389.22 183.179C389.13 176.209 389.04 169.759 388.94 163.849C388.85 157.769 388.75 152.059 388.64 146.729C388.55 141.379 388.51 136.029 388.55 130.659C388.57 128.279 388.05 126.589 386.98 125.599C386.05 124.429 384.78 123.629 383.18 123.169C381.71 122.709 380.11 122.589 378.36 122.799C376.75 122.829 375.28 122.919 373.94 123.079C371.67 123.349 369.72 123.429 368.11 123.319C366.64 123.179 365.91 122.259 365.92 120.559C365.93 118.859 366.81 117.669 368.55 116.979C370.3 116.289 372.17 115.809 374.19 115.549C378.61 114.989 383.18 114.479 387.86 114.059C392.56 113.479 397.05 112.929 401.33 112.409C405.62 111.909 409.57 111.519 413.19 111.269C416.95 110.849 420.09 110.509 422.64 110.239C427.6 109.719 431.62 109.309 434.69 109.009C437.9 108.529 440.99 108.169 443.93 107.899C447.01 107.629 450.35 107.349 453.97 107.059C457.58 106.599 462.34 106.169 468.21 105.779C470.09 105.659 471.48 106.269 472.4 107.609C473.33 108.759 473.77 111.159 473.74 114.789C473.633 126.236 473.53 137.582 473.43 148.829C473.4 151.989 473.18 154.739 472.76 157.069C472.34 159.229 471.4 160.329 469.93 160.379C467.93 160.449 466.73 159.409 466.35 157.289C466.11 155.149 465.98 152.919 466 150.609C466.08 141.262 466.163 131.852 466.25 122.379C466.28 119.129 465.37 117.219 463.5 116.659C461.77 115.909 460.24 115.579 458.9 115.669C438.627 117.309 418.343 119.172 398.05 121.259C397.863 148.692 397.69 175.846 397.53 202.719C401.4 202.709 405.21 202.709 408.94 202.729C412.69 202.749 416.5 202.689 420.36 202.549C422.23 202.489 424.31 202.419 426.57 202.339C428.85 202.109 430.98 201.969 432.98 201.899C435.13 201.669 436.99 201.539 438.59 201.499C440.2 201.279 441.34 201.179 442 201.159C442.8 201.139 443.41 200.329 443.82 198.729C444.37 196.969 444.71 194.969 444.86 192.749C445.14 190.349 445.29 187.949 445.31 185.559C445.47 182.979 445.54 180.979 445.55 179.539C445.55 179.369 445.56 178.889 445.56 178.089C445.71 177.279 445.84 176.469 445.98 175.659C446.26 174.689 446.59 173.859 447 173.209C447.54 172.529 448.21 172.189 449.01 172.159C450.61 172.089 451.55 172.699 451.8 173.989C452.19 175.259 452.38 176.789 452.37 178.569C452.33 183.229 452.24 187.799 452.07 192.289C451.91 196.599 451.81 201.049 451.78 205.649C451.75 210.229 451.79 214.719 451.89 219.129C452.01 223.509 452.04 227.889 452.01 232.259C452 234.899 451.59 236.619 450.78 237.419C450.12 238.189 449.51 238.599 448.97 238.599C448.04 238.609 447.25 237.999 446.58 236.769C445.93 235.529 445.6 233.909 445.61 231.889C445.62 229.859 445.51 227.609 445.25 225.119C445.01 222.459 444.55 220.039 443.89 217.869C443.25 215.689 442.26 213.909 440.92 212.529C439.73 210.979 438.14 210.239 436.13 210.299C434.27 210.349 432.13 210.399 429.72 210.469C427.32 210.369 424.19 210.399 420.31 210.509C416.45 210.629 412.64 210.819 408.89 211.109C405.16 211.229 401.35 211.429 397.47 211.729C397.323 239.562 397.187 267.196 397.06 294.629C419 294.636 440.94 294.659 462.88 294.699C463.82 294.699 464.75 294.619 465.68 294.479C466.75 294.319 467.68 294.029 468.48 293.569C469.29 292.959 469.96 292.129 470.5 291.069C471.04 289.849 471.38 288.249 471.52 286.259C471.67 284.279 471.89 281.379 472.17 277.549C472.46 273.559 472.75 269.339 473.03 264.879C473.33 260.399 473.55 255.989 473.71 251.649C474 247.149 474.23 243.259 474.38 239.979C474.54 236.849 474.95 234.659 475.62 233.409C476.43 231.989 477.17 231.279 477.83 231.269Z" fill="black"/>
<path d="M340.48 301.939C341.14 304.879 343.14 306.789 346.46 307.679C349.79 308.559 354.66 309.029 361.06 309.039C362.93 309.049 364.59 309.119 366.06 309.279C367.53 309.569 368.26 310.399 368.25 311.719C368.24 313.779 365.91 314.809 361.24 314.789C347.04 314.722 332.837 314.659 318.63 314.599C316.23 314.589 314.56 314.359 313.64 313.909C312.84 313.479 312.44 312.679 312.44 311.519C312.45 310.219 313.45 309.349 315.45 308.919C317.45 308.629 319.66 308.409 322.06 308.279C324.46 308.129 326.66 307.779 328.66 307.199C330.66 306.609 331.67 305.449 331.68 303.699C331.68 302.819 331.41 301.069 330.89 298.439C330.37 295.809 329.72 292.739 328.93 289.239C328.14 285.739 327.28 282.009 326.37 278.079C325.45 273.989 324.53 270.189 323.61 266.709C322.69 263.059 321.83 259.789 321.04 256.889C320.38 253.979 319.93 251.869 319.67 250.549C301.583 250.936 283.497 251.322 265.41 251.709C264.47 255.159 263.38 258.939 262.17 263.089C260.96 267.229 259.82 271.299 258.74 275.279C257.65 279.139 256.71 282.699 255.91 285.969C255.23 289.109 254.89 291.459 254.89 293.019C254.88 294.009 255.35 294.729 256.28 295.149C257.21 295.559 258.35 295.919 259.68 296.199C261.15 296.329 262.68 296.399 264.28 296.389C266.01 296.389 267.61 296.379 269.08 296.379C270.41 296.369 271.88 296.509 273.48 296.789C275.08 296.929 275.88 297.789 275.87 299.369C275.87 300.069 275.4 300.789 274.47 301.519C273.53 302.219 271.73 302.589 269.06 302.589C252.26 302.636 235.457 302.699 218.65 302.779C217.45 302.789 216.38 302.579 215.45 302.149C214.52 301.749 214.05 300.969 214.06 299.849C214.06 298.299 215.39 297.519 218.06 297.499C219.39 297.489 221.06 297.409 223.06 297.259C224.93 297.099 226.74 296.949 228.47 296.789C230.34 296.639 231.94 296.489 233.27 296.349C234.74 296.189 235.74 296.119 236.27 296.119C239.2 295.809 241.35 295.019 242.68 293.739C244.01 292.439 245.16 290.529 246.1 287.979C248.11 281.859 250.4 274.399 252.96 265.579C255.65 256.609 258.34 246.979 261.04 236.709C263.74 226.419 266.43 215.899 269.14 205.159C271.97 194.239 274.67 183.889 277.23 174.099C279.79 164.149 282.09 155.119 284.12 147.029C286.28 138.769 288.04 132.169 289.39 127.219C289.66 126.059 290.13 125.089 290.8 124.299C291.61 123.369 292.55 122.839 293.62 122.719C294.29 122.639 295.03 122.829 295.83 123.309C296.63 123.779 297.23 124.769 297.63 126.289C304.803 154.862 311.963 183.756 319.11 212.969C326.237 242.542 333.36 272.199 340.48 301.939ZM293.18 139.789C292.64 142.679 291.75 146.759 290.53 151.999C289.31 157.079 287.89 162.749 286.27 168.999C284.65 175.239 282.96 181.899 281.2 188.989C279.45 195.919 277.69 202.769 275.94 209.549C274.32 216.159 272.77 222.489 271.28 228.519C269.93 234.539 268.77 239.689 267.83 243.989C271.96 244.019 276.04 244.059 280.04 244.109C284.05 244.009 288.12 243.909 292.26 243.799C296.39 243.699 300.54 243.599 304.67 243.489C308.95 243.229 313.16 242.979 317.29 242.739C315.72 235.619 313.94 227.659 311.97 218.849C310 210.049 307.9 201.069 305.65 191.899C303.55 182.749 301.43 173.719 299.32 164.799C297.22 155.769 295.16 147.439 293.18 139.789Z" fill="black"/>
<path d="M219.3 146.289C215.16 146.959 211.48 147.449 208.27 147.769C205.06 148.089 201.39 148.569 197.24 149.199C194.3 149.619 192.5 150.849 191.83 152.899C191.3 154.799 191.03 156.819 191.02 158.979C191.02 165.169 190.89 173.469 190.61 183.919C190.34 194.389 190.19 207.699 190.17 223.879C190.16 230.059 190.22 237.219 190.34 245.359C190.47 253.369 190.51 261.269 190.5 269.039C190.62 276.819 190.74 283.989 190.86 290.549C190.99 297.109 191.04 301.939 191.03 305.019C197.83 304.992 204.63 304.962 211.43 304.929C212.9 304.919 214.23 305.269 215.43 305.969C216.77 306.659 217.43 307.579 217.43 308.709C217.42 310.539 216.09 311.469 213.42 311.479C199.42 311.519 185.417 311.559 171.41 311.599C169.55 311.609 167.68 311.399 165.81 310.989C164.08 310.709 163.21 310.009 163.22 308.909C163.22 307.639 163.89 306.809 165.22 306.389C166.56 305.969 167.82 305.749 169.02 305.749C170.36 305.739 171.76 305.659 173.22 305.509C174.82 305.499 176.23 305.149 177.43 304.449C178.77 303.879 179.83 302.979 180.63 301.719C181.44 300.309 181.84 298.419 181.84 296.049C181.88 274.209 181.917 252.452 181.95 230.779C181.97 209.292 181.987 187.916 182 166.649C178.39 176.219 174.78 185.949 171.17 195.809C167.56 205.549 163.95 215.099 160.33 224.439C156.86 233.779 153.51 242.719 150.3 251.259C147.09 259.659 144.07 267.439 141.26 274.599C138.45 281.649 135.98 287.859 133.84 293.239C131.7 298.639 129.96 302.789 128.62 305.689C128.36 306.249 127.81 306.939 127.01 307.769C126.35 308.609 125.48 309.019 124.41 309.029C122.81 309.029 121.55 307.589 120.62 304.679C118.62 299.179 116.03 292.389 112.84 284.329C109.65 276.159 106.13 267.479 102.26 258.299C98.4 249.149 94.41 239.769 90.27 230.149C86.27 220.409 82.41 211.249 78.66 202.639C74.93 193.909 71.53 185.979 68.45 178.849C65.52 171.729 63.25 166.049 61.65 161.829C61.65 184.229 61.65 206.666 61.65 229.139C61.6433 251.719 61.6333 274.386 61.62 297.139C68.02 297.106 74.42 297.072 80.82 297.039C82.29 297.039 83.62 297.369 84.82 298.049C86.16 298.719 86.82 299.609 86.82 300.689C86.81 302.479 85.48 303.379 82.81 303.389C68.6767 303.442 54.5433 303.496 40.41 303.549C38.55 303.559 36.68 303.429 34.81 303.169C33.07 302.769 32.21 302.029 32.21 300.939C32.21 299.739 32.88 298.909 34.21 298.509C35.55 298.089 36.81 297.869 38.01 297.869C39.35 297.859 40.81 297.849 42.41 297.839C44.01 297.699 45.48 297.359 46.81 296.799C48.15 296.119 49.28 295.169 50.21 293.949C51.16 292.579 51.62 290.749 51.62 288.459C52.29 278.729 52.77 268.619 53.03 258.139C53.31 247.669 53.44 237.019 53.44 226.179C53.44 214.019 53.31 202.009 53.04 190.159C52.91 178.309 52.84 166.669 52.84 155.239C52.84 152.849 51.51 151.409 48.83 150.939C46.3 150.319 43.43 149.979 40.23 149.909C37.02 149.829 34.09 149.759 31.42 149.679C28.89 149.459 27.61 148.609 27.61 147.159C27.61 146.219 28.01 145.479 28.82 144.939C29.62 144.259 30.56 143.839 31.62 143.689C32.69 143.399 33.76 143.249 34.82 143.229C35.89 143.079 36.69 142.999 37.22 142.989C44.6267 142.849 52.0333 142.709 59.44 142.569C61.31 142.529 86.08 141.999 87.08 142.569C88.08 143.149 91.69 146.339 88.58 147.109C82.34 148.639 66.14 147.999 66.85 150.379C68.19 154.459 70.32 160.119 73.26 167.369C76.2 174.489 79.54 182.469 83.27 191.319C87.01 200.189 90.94 209.469 95.07 219.179C99.35 228.899 103.41 238.399 107.27 247.659C111.27 256.959 114.8 265.669 117.85 273.819C121.05 281.859 123.44 288.569 125.03 293.919C126.91 288.549 129.32 281.999 132.26 274.299C135.21 266.589 138.42 258.339 141.89 249.559C145.37 240.629 148.92 231.439 152.53 221.979C156.14 212.519 159.62 203.419 162.96 194.659C166.44 185.899 169.58 177.769 172.39 170.269C175.33 162.769 177.67 156.439 179.4 151.279C180.07 149.379 180.54 147.889 180.81 146.819C181.21 145.729 181.75 144.909 182.41 144.339C183.08 143.639 184.01 143.199 185.21 142.999C186.42 142.679 188.22 142.459 190.63 142.329C199.717 141.822 208.807 141.286 217.9 140.719C220.04 140.579 221.71 140.599 222.91 140.779C224.26 140.829 224.92 141.529 224.92 142.879C224.92 144.509 223.05 145.639 219.3 146.289Z" fill="black"/>
<path fill-rule="evenodd" clip-rule="evenodd" d="M97.5 1.98893C103.31 0.148926 109.54 0.00892591 115.43 1.59893C121.32 3.17893 126.62 6.41893 130.69 10.8989C134.77 15.3489 137.44 20.8389 138.39 26.7189C139.34 32.5689 138.52 38.5689 136.03 44.0089C133.55 49.4489 129.49 54.1089 124.37 57.4189C119.25 60.7389 113.28 62.5589 107.17 62.6489C107.163 60.3623 107.16 58.0789 107.16 55.7989C111.91 55.7389 116.57 54.3289 120.56 51.7489C124.54 49.1789 127.7 45.5489 129.63 41.3089C131.57 37.0689 132.21 32.3889 131.47 27.8189C130.73 23.2289 128.66 18.9589 125.49 15.4889C122.31 12.0189 118.18 9.50893 113.59 8.27893C109.01 7.04893 104.16 7.16893 99.63 8.59893C95.1 10.0389 91.09 12.7389 88.07 16.3789C85.9 18.9989 84.33 22.0289 83.41 25.2689C93.5233 25.2356 103.64 25.1956 113.76 25.1489C113.767 27.3423 113.77 29.5323 113.77 31.7189C110.357 34.5189 106.943 37.3256 103.53 40.1389C91.75 49.8789 80.98 63.5189 73.18 77.8289C65.33 92.2289 60.66 106.909 60.67 118.509C60.67 126.662 60.67 134.822 60.67 142.989C68.8033 142.822 76.9367 142.649 85.07 142.469C87.01 142.429 88.58 143.939 88.58 145.869C88.58 147.789 87.01 149.379 85.08 149.429C68.7267 149.782 52.3767 150.119 36.03 150.439C34.09 150.479 32.53 148.939 32.53 147.019C32.53 145.079 34.09 143.499 36.03 143.459C41.91 143.352 47.79 143.242 53.67 143.129C53.6633 134.956 53.66 126.789 53.66 118.629C53.66 107.019 48.98 92.4589 41.12 78.2089C33.3 63.9689 22.53 50.3489 10.74 40.6389C7.32667 37.8189 3.91333 34.9989 0.5 32.1789C0.5 29.9523 0.5 27.7223 0.5 25.4889C25.7333 25.4223 50.97 25.3556 76.21 25.2889C77.25 20.4289 79.46 15.8689 82.66 11.9989C86.53 7.30893 91.68 3.83893 97.5 1.98893ZM57.16 97.6789C59.48 90.0689 62.87 82.2189 67.01 74.6089C70.34 68.5089 74.19 62.4989 78.43 56.8289C64.2367 56.9489 50.0433 57.0623 35.85 57.1689C40.09 62.8089 43.95 68.7789 47.28 74.8289C51.43 82.3589 54.82 90.1289 57.16 97.6789ZM30.31 50.2589C48.1967 50.1389 66.08 50.0156 83.96 49.8889C88.67 44.3489 93.74 39.2689 99.04 34.8889C100.187 33.9489 101.33 33.0123 102.47 32.0789C72.2433 32.2056 42.0167 32.3223 11.79 32.4289C12.93 33.3689 14.0733 34.3123 15.22 35.2589C20.52 39.6389 25.59 44.7089 30.31 50.2589Z" fill="black"/>
</svg>
