<svg width="300" height="300" viewBox="0 0 300 300" fill="none" xmlns="http://www.w3.org/2000/svg">
<g clip-path="url(#clip0_20_18)">
<path d="M217.318 101.716L72.6915 155.163C72.6915 208.609 161.779 303.254 168.861 299.914C174.527 297.242 221.916 274.799 244.902 263.912C251.164 195.916 229.122 127.45 217.318 101.716Z" stroke="black" stroke-width="14"/>
<path d="M210.236 78.3331L63 132.893C63 107.358 80.395 92.8083 89.0925 88.7255L83.1285 44.1867C91.4781 37.3574 122.888 29.2167 137.55 26L158.424 60.5176C202.856 61.4084 211.479 72.7658 210.236 78.3331Z" stroke="black" stroke-width="14"/>
<path d="M237 72C261.458 84.9963 277.262 141.809 268.607 173" stroke="black" stroke-width="7"/>
<path d="M274 80C293.649 99.0062 295.503 113.913 287.717 140" stroke="black" stroke-width="7"/>
<path d="M26.4653 216.917C4.25919 201.018 0.278971 186.589 4.24458 159.743" stroke="black" stroke-width="7"/>
<path d="M29.0387 123.284C17.7211 148.251 39.7555 202.888 65.4548 222.517" stroke="black" stroke-width="7"/>
<path d="M104 167C104 203.344 155.546 269.209 170 279" stroke="black" stroke-width="7"/>
</g>
<defs>
<clipPath id="clip0_20_18">
<rect width="300" height="300" fill="white"/>
</clipPath>
</defs>
</svg>
