<svg width="500" height="500" viewBox="0 0 500 500" fill="none" xmlns="http://www.w3.org/2000/svg">
<path d="M164.844 250C134.837 250 116.918 271.117 160.439 271.116C190.446 271.114 208.366 249.999 164.844 250ZM259.296 262.023C229.481 262.023 207.84 268.844 201.986 280.962C144.252 279.238 96.3478 299.377 108.764 313.175C110.383 314.973 108.972 317.016 105.137 317.204C9.1177 321.912 -8.71237 365.038 83.7362 378.397C87.6487 378.963 88.4295 381.798 86.5659 383.633C64.1122 405.726 113.094 421.899 185.833 421.899C260.136 421.899 300.354 409.137 287.543 388.459C284.715 383.896 286.152 380.661 292.38 380.013C390.674 369.812 365.73 314.47 281.085 309.146C263.838 308.063 267.928 299.888 274.218 299.083C344.782 290.066 301.838 262.023 259.297 262.023H259.296ZM323.992 402.183C299.369 402.634 287.122 419.022 324.984 421.64C352.83 423.565 369.453 405.107 329.065 402.312C327.377 402.196 325.684 402.153 323.991 402.184L323.992 402.183ZM86.0469 429.978C38.8027 429.979 17.5245 464.003 86.0469 464C133.291 463.999 154.569 429.975 86.0469 429.978Z" fill="black"/>
<path d="M267.244 57.1368C265.891 55.5108 264.12 54.2768 262.121 53.5665C260.121 52.8561 257.967 52.6961 255.89 53.1034C253.812 53.5107 251.889 54.4702 250.324 55.8793C248.759 57.2885 247.612 59.0945 247.005 61.1047L193.352 238.753C192.746 240.762 192.703 242.899 193.226 244.937C193.749 246.975 194.819 248.837 196.322 250.325C197.825 251.814 199.704 252.872 201.761 253.389C203.817 253.905 205.973 253.86 207.999 253.257L366.096 206.115L407.579 218.644L397.519 251.953L419.961 258.731L446.788 169.907L424.346 163.129L414.286 196.438L372.803 183.909L267.244 57.1368ZM345.818 187.875L275.884 208.735L299.123 131.791L345.818 187.875ZM263.183 88.6231L281.155 110.201L248.969 216.768L222.057 224.791L263.183 88.6231Z" fill="black"/>
</svg>
